<svg width="25" height="26" viewBox="0 0 25 26" fill="none" xmlns="http://www.w3.org/2000/svg">
<path d="M24.7335 0.298858C24.8637 0.429129 24.9513 0.595812 24.9848 0.776906C25.0183 0.958 24.9961 1.14499 24.9211 1.3132L14.619 24.4919C14.547 24.654 14.4292 24.7916 14.2802 24.8877C14.1311 24.9838 13.9572 25.0343 13.7798 25.0329C13.6025 25.0316 13.4293 24.9784 13.2818 24.8801C13.1342 24.7817 13.0185 24.6424 12.949 24.4792L9.23209 15.7999L0.550778 12.0813C0.388196 12.0113 0.249518 11.8955 0.151703 11.748C0.0538889 11.6005 0.0011788 11.4277 1.95413e-05 11.2508C-0.00113971 11.0738 0.0493022 10.9003 0.145176 10.7516C0.24105 10.6028 0.378199 10.4852 0.539851 10.4131L23.7192 0.111287C23.8872 0.0367096 24.0738 0.0147141 24.2545 0.0481926C24.4352 0.0816712 24.6016 0.169056 24.7317 0.298858H24.7335Z" fill="#E37712"/>
</svg>
