<svg width="42" height="41" viewBox="0 0 42 41" fill="none" xmlns="http://www.w3.org/2000/svg">
<g filter="url(#filter0_d_167_7)">
<path fill-rule="evenodd" clip-rule="evenodd" d="M35.6328 4.84735C35.7492 4.95763 35.8416 5.08865 35.9046 5.2329C35.9676 5.37714 36 5.53178 36 5.68795C36 5.84411 35.9676 5.99875 35.9046 6.14299C35.8416 6.28724 35.7492 6.41826 35.6328 6.52855L8.13692 32.6489C7.90224 32.8718 7.58394 32.9971 7.25205 32.9971C6.92016 32.9971 6.60186 32.8718 6.36718 32.6489C6.1325 32.4259 6.00066 32.1236 6.00066 31.8083C6.00066 31.493 6.1325 31.1906 6.36718 30.9677L33.8631 4.84735C33.9792 4.73678 34.1171 4.64905 34.2689 4.5892C34.4208 4.52934 34.5836 4.49854 34.748 4.49854C34.9123 4.49854 35.0751 4.52934 35.227 4.5892C35.3788 4.64905 35.5167 4.73678 35.6328 4.84735Z" fill="#1B293F"/>
<path fill-rule="evenodd" clip-rule="evenodd" d="M6.36718 4.84735C6.25079 4.95763 6.15845 5.08865 6.09544 5.2329C6.03243 5.37714 6 5.53178 6 5.68795C6 5.84411 6.03243 5.99875 6.09544 6.14299C6.15845 6.28724 6.25079 6.41826 6.36718 6.52855L33.8631 32.6489C34.0978 32.8718 34.4161 32.9971 34.748 32.9971C35.0798 32.9971 35.3981 32.8718 35.6328 32.6489C35.8675 32.4259 35.9993 32.1236 35.9993 31.8083C35.9993 31.493 35.8675 31.1906 35.6328 30.9677L8.13692 4.84735C8.02082 4.73678 7.8829 4.64905 7.73106 4.5892C7.57922 4.52934 7.41644 4.49854 7.25205 4.49854C7.08765 4.49854 6.92488 4.52934 6.77304 4.5892C6.6212 4.64905 6.48328 4.73678 6.36718 4.84735Z" fill="#1B293F"/>
</g>
<defs>
<filter id="filter0_d_167_7" x="0" y="0.498535" width="42" height="40.4985" filterUnits="userSpaceOnUse" color-interpolation-filters="sRGB">
<feFlood flood-opacity="0" result="BackgroundImageFix"/>
<feColorMatrix in="SourceAlpha" type="matrix" values="0 0 0 0 0 0 0 0 0 0 0 0 0 0 0 0 0 0 127 0" result="hardAlpha"/>
<feOffset dy="2"/>
<feGaussianBlur stdDeviation="3"/>
<feComposite in2="hardAlpha" operator="out"/>
<feColorMatrix type="matrix" values="0 0 0 0 0 0 0 0 0 0 0 0 0 0 0 0 0 0 0.3 0"/>
<feBlend mode="normal" in2="BackgroundImageFix" result="effect1_dropShadow_167_7"/>
<feBlend mode="normal" in="SourceGraphic" in2="effect1_dropShadow_167_7" result="shape"/>
</filter>
</defs>
</svg>
