<svg width="25" height="20" viewBox="0 0 25 20" fill="none" xmlns="http://www.w3.org/2000/svg">
<path d="M24.9994 17.1835C24.9119 17.483 24.8562 17.7975 24.7311 18.0787C24.2109 19.2463 23.3259 19.8794 22.1034 19.9904C22.0063 19.9992 21.9084 19.9992 21.8106 19.9992C15.6029 19.9999 9.39451 20.0006 3.18678 19.9992C1.75762 19.9992 0.601846 19.1727 0.173615 17.8132C0.0654233 17.4708 0.00970786 17.0943 0.00906001 16.7328C-0.0019535 12.2443 -0.00195362 7.75516 0.00387706 3.2667C0.00582062 1.40269 1.34817 0.00774871 3.14013 0.00366395C6.20772 -0.00314397 9.27466 0.00162166 12.3422 0.00162166C15.507 0.00162166 18.6724 -0.000422128 21.8372 0.00230104C23.3797 0.00366263 24.5821 0.991493 24.9268 2.52668C24.9488 2.62403 24.9754 2.7207 25 2.81738C24.9994 7.60607 24.9994 12.3948 24.9994 17.1835ZM12.4757 18.5246C15.5996 18.5246 18.7229 18.5267 21.8469 18.5233C22.8938 18.5219 23.598 17.8009 23.5987 16.7266C23.6019 12.2647 23.6026 7.80214 23.598 3.34023C23.5968 2.20398 22.9029 1.48166 21.8249 1.48166C15.61 1.4803 9.39516 1.4803 3.1803 1.48166C2.10033 1.48166 1.40389 2.20126 1.40259 3.33546C1.39806 7.78035 1.39741 12.2259 1.40778 16.6708C1.40842 16.9608 1.4609 17.276 1.57751 17.5361C1.88978 18.2319 2.45276 18.528 3.17706 18.5273C6.27704 18.5226 9.37637 18.5246 12.4757 18.5246Z" fill="white"/>
<path d="M15.7714 9.83363C15.967 10.0304 16.1484 10.2135 16.3305 10.3953C18.136 12.1967 19.9423 13.9974 21.7478 15.7987C21.8243 15.875 21.904 15.9505 21.9687 16.037C22.1871 16.3263 22.1663 16.7375 21.926 16.9976C21.6863 17.257 21.295 17.2944 21.0138 17.0766C20.916 17.001 20.8292 16.9098 20.7404 16.8213C18.7994 14.8844 16.8585 12.9469 14.9175 11.0094C14.8585 10.9508 14.7983 10.8943 14.7225 10.8208C14.2424 11.2728 13.7507 11.7051 13.2927 12.1728C12.6921 12.7862 12.3377 12.7896 11.7456 12.1817C11.3051 11.729 10.8295 11.315 10.3553 10.8705C10.2504 10.9726 10.1558 11.0645 10.0618 11.1571C8.1131 13.0728 6.1663 14.9913 4.21173 16.9009C4.08151 17.0282 3.90724 17.1324 3.7362 17.1801C3.43884 17.2618 3.16285 17.1065 3.01773 16.8329C2.87197 16.5585 2.90177 16.2419 3.10066 15.9982C3.15832 15.9267 3.22505 15.8634 3.29048 15.7994C5.22627 13.8939 7.1627 11.989 9.09978 10.0848C9.16456 10.0215 9.24101 9.97183 9.32847 9.90375C8.69941 9.31214 8.11245 8.75934 7.5242 8.20789C6.08661 6.85788 4.64903 5.50651 3.2095 4.15922C2.98988 3.95362 2.83957 3.72079 2.89594 3.39946C2.99635 2.82759 3.61765 2.59476 4.04847 2.98145C4.6108 3.4866 5.15565 4.01422 5.70762 4.53298C7.92069 6.61416 10.1331 8.69534 12.3462 10.7765C12.3999 10.8269 12.4583 10.8725 12.5191 10.9243C13.8174 9.70019 15.1067 8.48362 16.3966 7.26772C17.8737 5.87414 19.3501 4.4792 20.8298 3.08902C20.9425 2.98281 21.0747 2.88206 21.2146 2.83032C21.5088 2.72207 21.8405 2.86504 22.0024 3.13531C22.1689 3.41376 22.1411 3.76096 21.9273 4.01422C21.8625 4.09046 21.788 4.15786 21.7154 4.22594C19.7712 6.05863 17.827 7.89065 15.8822 9.72266C15.8524 9.75057 15.8238 9.78121 15.7714 9.83363Z" fill="white"/>
</svg>
