<svg width="20" height="20" viewBox="0 0 20 20" fill="none" xmlns="http://www.w3.org/2000/svg">
<path d="M14.9725 19.9995C14.6909 19.9544 14.4082 19.9145 14.1276 19.8626C13.0351 19.6594 12.0143 19.2504 11.0222 18.7657C9.39709 17.971 7.88547 16.9974 6.53054 15.8025C3.81547 13.4081 1.66673 10.6108 0.458584 7.16344C0.160322 6.31171 -0.0187395 5.43614 0.00156112 4.52739C0.0213412 3.65285 0.30659 2.88407 0.92758 2.25577C1.47726 1.70005 2.01028 1.12307 2.60004 0.611932C3.55416 -0.215949 4.53744 -0.206099 5.45201 0.655477C6.37646 1.52587 7.26917 2.43254 8.14053 3.35685C8.85522 4.11526 8.85105 5.1448 8.15303 5.91618C7.66425 6.45635 7.13331 6.95919 6.61226 7.47033C6.5092 7.57142 6.49983 7.64192 6.56073 7.76841C7.07866 8.85031 7.83082 9.7632 8.64336 10.6305C9.47048 11.5133 10.3804 12.3023 11.4048 12.9529C11.6734 13.1235 11.9649 13.2593 12.2392 13.4215C12.349 13.4863 12.4151 13.4749 12.5041 13.3842C12.9377 12.9425 13.3781 12.5071 13.8185 12.0721C14.162 11.7326 14.5461 11.4584 15.0386 11.3775C15.7028 11.2681 16.2654 11.4832 16.7339 11.9415C17.586 12.7756 18.4298 13.619 19.2725 14.4625C20.1788 15.3697 20.2522 16.3977 19.4146 17.3593C18.8343 18.0254 18.1919 18.6413 17.548 19.2483C17.091 19.6791 16.5122 19.8896 15.8865 19.9642C15.8423 19.9694 15.7996 19.9876 15.7564 20C15.4951 19.9995 15.2338 19.9995 14.9725 19.9995ZM1.01659 4.53827C1.02336 5.61239 1.27842 6.46982 1.59646 7.31222C2.49281 9.68648 3.9279 11.7186 5.64721 13.561C7.32174 15.3557 9.27216 16.789 11.4818 17.8683C12.5817 18.4059 13.7149 18.8419 14.948 18.9694C15.6976 19.0467 16.4091 18.9596 16.9755 18.4194C17.5548 17.8663 18.1138 17.2909 18.6568 16.702C19.094 16.2281 19.0862 15.7419 18.6349 15.2815C17.764 14.3925 16.8786 13.5169 15.988 12.6476C15.6273 12.2956 15.163 12.2919 14.7616 12.6009C14.669 12.6725 14.5847 12.7549 14.5014 12.8373C14.0152 13.3189 13.5327 13.8041 13.0449 14.2841C12.7269 14.5967 12.386 14.6512 11.9904 14.4516C11.7051 14.308 11.4204 14.1618 11.1466 13.9985C9.85359 13.2266 8.73133 12.2489 7.72047 11.1411C6.87877 10.2194 6.11152 9.24584 5.59099 8.09915C5.32292 7.50817 5.37497 7.25053 5.84188 6.8016C6.34888 6.31379 6.85691 5.82546 7.33892 5.3138C7.75118 4.87575 7.74701 4.41438 7.32903 3.97789C6.68982 3.30915 6.02875 2.66116 5.37445 2.00694C5.13501 1.76744 4.89556 1.52639 4.64259 1.30192C4.24855 0.952519 3.79465 0.947336 3.37875 1.27237C3.29702 1.33613 3.21894 1.40664 3.14503 1.47973C2.69113 1.92918 2.24451 2.38537 1.78541 2.82964C1.25395 3.34441 0.997331 3.96441 1.01659 4.53827Z" fill="white"/>
</svg>
