<svg width="21" height="16" viewBox="0 0 21 16" fill="none" xmlns="http://www.w3.org/2000/svg">
<path d="M13.7714 7.83363C13.967 8.03038 14.1484 8.21351 14.3305 8.39528C16.136 10.1967 17.9423 11.9974 19.7478 13.7987C19.8243 13.875 19.904 13.9505 19.9687 14.037C20.1871 14.3263 20.1663 14.7375 19.926 14.9976C19.6863 15.257 19.295 15.2944 19.0138 15.0766C18.916 15.001 18.8292 14.9098 18.7404 14.8213C16.7994 12.8844 14.8585 10.9469 12.9175 9.00936C12.8585 8.95081 12.7983 8.8943 12.7225 8.82078C12.2424 9.27282 11.7507 9.70513 11.2927 10.1728C10.6921 10.7862 10.3377 10.7896 9.74561 10.1817C9.30507 9.72895 8.82955 9.31503 8.35532 8.87047C8.25037 8.97259 8.15578 9.0645 8.06184 9.15709C6.1131 11.0728 4.1663 12.9913 2.21173 14.9009C2.08151 15.0282 1.90724 15.1324 1.7362 15.1801C1.43884 15.2618 1.16285 15.1065 1.01773 14.8329C0.871966 14.5585 0.901767 14.2419 1.10066 13.9982C1.15832 13.9267 1.22505 13.8634 1.29048 13.7994C3.22627 11.8939 5.1627 9.98902 7.09978 8.08484C7.16457 8.02153 7.24101 7.97183 7.32847 7.90375C6.69941 7.31214 6.11245 6.75934 5.5242 6.20789C4.08661 4.85788 2.64903 3.50651 1.2095 2.15922C0.989876 1.95362 0.839573 1.72079 0.895936 1.39946C0.996354 0.827593 1.61765 0.594763 2.04847 0.981453C2.6108 1.4866 3.15565 2.01422 3.70762 2.53298C5.92069 4.61416 8.1331 6.69534 10.3462 8.77653C10.3999 8.8269 10.4583 8.87252 10.5191 8.92426C11.8174 7.70019 13.1067 6.48362 14.3966 5.26772C15.8737 3.87414 17.3501 2.4792 18.8298 1.08902C18.9425 0.982814 19.0747 0.882057 19.2146 0.830317C19.5088 0.722071 19.8405 0.865038 20.0024 1.13531C20.1689 1.41376 20.1411 1.76096 19.9273 2.01422C19.8625 2.09046 19.788 2.15786 19.7154 2.22594C17.7712 4.05863 15.827 5.89065 13.8822 7.72266C13.8524 7.75057 13.8238 7.78121 13.7714 7.83363Z" fill="white"/>
</svg>
